<?xml version="1.0" encoding="UTF-8"?><svg id="a" xmlns="http://www.w3.org/2000/svg" width="7.56in" height="5.325in" viewBox="0 0 544.304 383.428"><path d="M132.412,338.747h-4.725c-2.231,0-3.773.469-4.626,1.401-.853.935-1.28,2.728-1.28,5.382v35.76h-10.499l-4.791-8.11c-4.068,3.392-8.268,5.898-12.599,7.521-4.331,1.622-9.1,2.434-14.305,2.434-13.606,0-24.619-4.928-33.04-14.783-8.422-9.855-12.632-22.795-12.632-38.819,0-15.483,4.364-28.287,13.091-38.413s19.675-15.189,32.843-15.189c4.899,0,9.394.774,13.485,2.323,4.09,1.548,8.323,4.092,12.698,7.631l2.428-8.185h10.893v41.289h-11.549c-.787-9.584-3.248-16.921-7.382-22.008-4.134-5.088-9.701-7.631-16.7-7.631-7.612,0-13.627,3.564-18.045,10.69-4.419,7.128-6.628,16.958-6.628,29.492,0,12.829,2.209,22.759,6.628,29.787,4.418,7.03,10.63,10.544,18.636,10.544,5.03,0,8.858-1.291,11.483-3.871,2.625-2.581,3.937-6.328,3.937-11.244v-8.184c0-3.638-.416-5.85-1.247-6.637-.832-.785-2.779-1.18-5.84-1.18h-7.415v-12.238h47.181v12.238Z" fill="#231f20"/><path d="M236.026,278.952v12.387h-4.331c-3.457,0-5.633.541-6.529,1.622-.897,1.081-1.345,3.662-1.345,7.741v47.114c0,11.698-3.172,20.56-9.515,26.58-6.343,6.021-15.683,9.032-28.02,9.032-11.155,0-19.763-2.986-25.822-8.959-6.06-5.972-9.088-14.512-9.088-25.621v-48.146c0-4.129-.482-6.721-1.443-7.778-.963-1.056-3.347-1.585-7.153-1.585h-4.462v-12.387h49.74v12.387h-6.037c-3.85,0-6.246.529-7.186,1.585-.941,1.058-1.411,3.649-1.411,7.778v46.451c0,7.717,1.257,13.173,3.773,16.367,2.515,3.196,6.704,4.793,12.566,4.793,6.999,0,11.931-1.462,14.797-4.387,2.865-2.924,4.298-8.147,4.298-15.668v-47.557c0-4.177-.438-6.783-1.312-7.814-.875-1.033-3.084-1.549-6.627-1.549h-5.644v-12.387h40.75Z" fill="#231f20"/><path d="M292.065,278.952v12.387h-6.037c-3.806,0-6.19.529-7.152,1.585-.963,1.058-1.443,3.649-1.443,7.778v67.169h14.37c9.144,0,15.225-1.941,18.243-5.825,1.617-2.112,2.92-5.197,3.904-9.253.984-4.055,1.477-9.032,1.477-14.931h11.155v42.396h-84.913v-12.387h5.118c3.762,0,6.135-.528,7.12-1.585s1.477-3.65,1.477-7.779v-57.805c0-4.129-.481-6.721-1.443-7.778-.963-1.056-3.347-1.585-7.153-1.585h-5.118v-12.387h50.396Z" fill="#231f20"/><path d="M385.049,278.952v12.387h-6.037c-3.806,0-6.19.529-7.152,1.585-.963,1.058-1.443,3.649-1.443,7.778v67.169h14.37c9.144,0,15.225-1.941,18.243-5.825,1.617-2.112,2.92-5.197,3.904-9.253.984-4.055,1.477-9.032,1.477-14.931h11.155v42.396h-84.913v-12.387h5.119c3.762,0,6.135-.528,7.119-1.585s1.477-3.65,1.477-7.779v-57.805c0-4.129-.481-6.721-1.443-7.778-.963-1.056-3.347-1.585-7.152-1.585h-5.119v-12.387h50.396Z" fill="#231f20"/><path d="M441.614,380.995h-10.631v-40.625h11.681c1.312,8.799,4.615,15.754,9.908,20.865,5.293,5.113,11.855,7.668,19.687,7.668,5.205,0,9.351-1.117,12.435-3.354,3.085-2.236,4.627-5.296,4.627-9.18,0-6.488-7.219-11.649-21.655-15.483l-2.559-.664c-13.737-3.686-22.99-7.84-27.758-12.46-4.769-4.62-7.152-11.034-7.152-19.243,0-9.732,3.216-17.597,9.646-23.594s14.896-8.996,25.395-8.996c5.206,0,9.919.764,14.142,2.286,4.221,1.524,8.432,3.981,12.632,7.373l3.215-7.078h9.975v37.75h-11.418c-.876-8.553-3.719-15.176-8.53-19.87-4.813-4.693-11.156-7.041-19.03-7.041-4.638,0-8.356,1.094-11.155,3.28-2.8,2.188-4.2,5.076-4.2,8.663,0,6.391,6.781,11.381,20.343,14.968l6.628,1.77c12.379,3.491,20.933,7.583,25.657,12.276,4.725,4.694,7.087,11.072,7.087,19.133,0,10.273-3.358,18.482-10.073,24.626-6.716,6.146-15.781,9.216-27.199,9.216-5.601,0-10.686-.836-15.257-2.506-4.571-1.671-9.022-4.301-13.354-7.89l-3.084,8.11Z" fill="#231f20"/><path d="M14.057,198.072l-.271.815c-1.237,3.711-.942,6.764.886,9.159.901,1.193,2.24,2.31,4.018,3.349s4.049,2.019,6.811,2.939l-2.08,6.24-21.791-7.264,15.589-46.766,21.791,7.264-2.104,6.311c-5.471-1.824-9.636-2.319-12.496-1.487-2.859.833-4.9,3.081-6.121,6.745l-.272.815,36.371,12.124c2.205.735,3.682.952,4.431.65.75-.302,1.475-1.504,2.177-3.608l1.099-3.297,6.692,2.231-9.254,27.761-6.693-2.231,1.087-3.262c.686-2.057.832-3.445.438-4.168-.393-.722-1.706-1.455-3.937-2.198l-36.372-12.124Z" fill="#231f20"/><path d="M85.896,165.035c-4.411,7.291-10.378,11.718-17.901,13.282-7.523,1.563-15.176-.009-22.961-4.719-7.784-4.709-12.714-10.757-14.79-18.143-2.075-7.385-.901-14.734,3.523-22.046,4.411-7.291,10.351-11.727,17.819-13.309s15.119-.004,22.951,4.735c7.76,4.695,12.696,10.747,14.808,18.154,2.111,7.408.961,14.756-3.45,22.046ZM40.138,137.481c-2.244,3.709-2.281,7.691-.111,11.945,2.17,4.255,6.31,8.229,12.417,11.925,6.204,3.753,11.684,5.592,16.442,5.515,4.758-.077,8.298-2.034,10.62-5.871,2.27-3.751,2.313-7.744.13-11.977s-6.353-8.212-12.509-11.937c-6.179-3.739-11.639-5.571-16.379-5.498-4.74.074-8.277,2.04-10.611,5.898Z" fill="#231f20"/><path d="M75.536,99.378c-1.616-1.708-2.83-2.593-3.642-2.654-.812-.061-2.005.653-3.58,2.143l-2.118,2.003-4.847-5.125,23.081-21.827c4.743-4.485,9.059-6.957,12.945-7.416,3.887-.458,7.514,1.092,10.88,4.652,2.347,2.481,3.556,5.248,3.63,8.299s-.999,6.377-3.218,9.978c2.8-1.608,5.276-2.234,7.429-1.881,1.085.168,2.21.597,3.376,1.286,1.166.689,2.326,1.644,3.48,2.864l4.234,4.26c.731.773,1.388,1.395,1.97,1.865.582.471,1.081.798,1.496.983.736.344,1.394.242,1.974-.306.634-.599.74-1.394.319-2.382-.218-.448-.768-1.229-1.649-2.342-.881-1.112-2.023-2.411-3.427-3.896l3.937-3.723.749.737,1.181,1.194c3.424,3.621,5.329,7.031,5.714,10.23.384,3.2-.753,6.058-3.414,8.574-2.824,2.671-5.638,3.829-8.442,3.475-1.42-.197-2.928-.785-4.522-1.764-1.594-.978-3.265-2.392-5.016-4.244l-4.039-4.271c-1.942-2.054-3.841-3.159-5.693-3.314-1.853-.155-3.688.627-5.508,2.348l-5.404,5.11,9.867,10.435c1.597,1.689,2.797,2.577,3.6,2.665.804.088,2.01-.629,3.622-2.153l2.498-2.362,4.847,5.125-20.855,19.721-4.847-5.126,2.118-2.003c1.557-1.472,2.333-2.619,2.326-3.442-.006-.822-.817-2.088-2.433-3.797l-22.62-23.92ZM92.623,99.171l3.34-3.158c3.765-3.561,5.84-6.389,6.223-8.486.384-2.097-.55-4.335-2.8-6.715-2.039-2.156-4.093-3.122-6.162-2.899-2.07.224-4.942,2.072-8.617,5.547l-3.612,3.415,11.627,12.296Z" fill="#231f20"/><path d="M127.701,54.896c-1.126-2.065-2.074-3.229-2.843-3.496-.769-.266-2.105.12-4.008,1.158l-2.56,1.396-3.377-6.193,27.89-15.209c5.731-3.125,10.535-4.413,14.41-3.864,3.875.549,6.986,2.975,9.331,7.275,1.635,2.999,2.099,5.982,1.391,8.951s-2.594,5.911-5.659,8.826c3.118-.839,5.672-.813,7.663.078,1.006.44,1.985,1.142,2.937,2.106.951.964,1.829,2.183,2.633,3.658l3.006,5.2c.51.935.985,1.704,1.428,2.307.442.604.841,1.048,1.195,1.333.625.521,1.287.59,1.987.208.765-.417,1.071-1.158.917-2.222-.097-.489-.429-1.384-.997-2.686-.567-1.3-1.34-2.848-2.318-4.642l4.757-2.595.536.904.837,1.457c2.386,4.375,3.356,8.159,2.912,11.35-.445,3.192-2.274,5.665-5.49,7.418-3.412,1.861-6.429,2.262-9.049,1.204-1.324-.553-2.631-1.507-3.922-2.859-1.291-1.353-2.546-3.147-3.766-5.384l-2.815-5.161c-1.354-2.482-2.907-4.035-4.658-4.658-1.752-.623-3.727-.335-5.925.863l-6.529,3.561,6.875,12.609c1.113,2.04,2.046,3.205,2.8,3.495.754.291,2.104-.095,4.051-1.157l3.019-1.646,3.377,6.193-25.199,13.742-3.378-6.193,2.56-1.396c1.881-1.025,2.924-1.937,3.128-2.734.204-.796-.257-2.228-1.383-4.292l-15.762-28.903ZM144.274,59.059l4.036-2.201c4.55-2.481,7.278-4.687,8.184-6.615.906-1.929.575-4.332-.993-7.207-1.42-2.605-3.16-4.064-5.218-4.377-2.058-.312-5.307.742-9.748,3.163l-4.364,2.38,8.102,14.857Z" fill="#231f20"/><path d="M228.032,2.971l5.406,21.676-6.165,1.537c-.718-2.879-1.59-5.244-2.617-7.094-1.026-1.85-2.119-3.193-3.277-4.03-2.115-1.578-5.867-1.696-11.258-.351l-9.791,2.442,4.095,16.419,2.756-.687c2.684-.669,4.309-1.666,4.878-2.991.286-.706.392-1.721.319-3.044s-.35-2.949-.831-4.878l6.092-1.52,6.656,26.688-6.092,1.52-.64-2.567c-.738-2.96-1.739-4.89-3.003-5.786-1.264-.897-3.141-1.035-5.63-.414l-2.756.688,4.705,18.864,8.993-2.243c5.536-1.381,8.924-3.395,10.165-6.041.662-1.464,1.013-3.297,1.055-5.5.05-2.58-.318-5.445-1.104-8.597l6.165-1.538,5.843,23.428-49.172,12.264-1.707-6.845,2.829-.706c2.079-.519,3.318-1.137,3.716-1.857.398-.72.313-2.221-.256-4.502l-7.967-31.943c-.569-2.281-1.192-3.647-1.87-4.099-.678-.451-2.068-.415-4.171.11l-2.828.705-1.708-6.845,49.172-12.264Z" fill="#231f20"/><path d="M252.091,13.978c-1.281-2.135-2.545-3.682-3.794-4.642-1.249-.959-2.597-1.428-4.041-1.404l-1.906.031-.114-7.054,28.101-.456.115,7.054-2.242.036c-1.371.022-2.333.213-2.888.573s-.826.931-.813,1.715c.005.308.086.686.243,1.131.157.446.428.987.813,1.625l7.456,11.815,7.826-12.854c.239-.369.436-.743.589-1.125.153-.381.227-.754.221-1.119-.012-.757-.326-1.299-.941-1.626-.616-.327-1.597-.479-2.942-.458l-2.354.038-.112-6.886,22.944-.372.114,7.054-1.756.028c-1.371.022-2.542.385-3.515,1.086-.974.702-2.163,2.269-3.568,4.699l-12.438,21.284.187,11.505c.038,2.324.323,3.789.856,4.396.533.608,1.908.893,4.126.857l3.886-.063.114,7.054-30.081.488-.114-7.054,3.849-.062c2.143-.035,3.489-.357,4.04-.969.551-.61.807-2.092.769-4.443l-.187-11.504-12.441-20.377Z" fill="#231f20"/><path d="M345.622,22.464c.797-2.212,1.04-3.694.729-4.447-.312-.752-1.487-1.496-3.526-2.23l-2.742-.989,2.393-6.637,28.162,10.152c6.516,2.349,10.815,5.298,12.9,8.846,2.084,3.549,2.163,7.997.235,13.342-1.804,5.004-4.669,8.175-8.593,9.512-3.926,1.338-9.076.857-15.451-1.441l-9.001-3.244-4.457,12.365c-.788,2.186-1.04,3.657-.757,4.414s1.468,1.511,3.554,2.263l3.235,1.166-2.393,6.636-27.002-9.733,2.393-6.637,2.742.989c2.016.727,3.39.902,4.121.526.731-.376,1.496-1.67,2.293-3.883l11.165-30.971ZM353.148,38.613l4.008,1.445c4.196,1.512,7.38,1.917,9.555,1.212,2.174-.704,3.826-2.623,4.956-5.757,1.072-2.976,1.028-5.388-.134-7.235-1.161-1.847-3.793-3.51-7.895-4.988l-4.396-1.584-6.095,16.908Z" fill="#231f20"/><path d="M425.379,45.979l-3.583,6.077-2.704-1.595c-1.867-1.101-3.176-1.531-3.925-1.291s-1.729,1.386-2.937,3.436l-16.723,28.358c-1.181,2.002-1.702,3.401-1.563,4.197.138.796,1.14,1.745,3.007,2.846l2.704,1.595-3.583,6.077-24.467-14.427,3.584-6.077,2.511,1.48c1.846,1.088,3.163,1.516,3.951,1.282.789-.233,1.78-1.363,2.975-3.389l16.723-28.358c1.194-2.026,1.708-3.437,1.542-4.234-.166-.797-1.183-1.746-3.05-2.847l-2.512-1.481,3.584-6.077,24.466,14.427Z" fill="#231f20"/><path d="M417.848,96.463c-1.562,1.722-2.354,2.986-2.38,3.793-.026.808.782,1.956,2.425,3.446l2.548,2.309-4.738,5.227-17.915-16.241,4.738-5.227,1.883,1.707c1.588,1.439,2.791,2.124,3.61,2.055.82-.069,2.02-.976,3.599-2.718l22.111-24.391c1.58-1.743,2.368-3.021,2.366-3.834-.002-.814-.806-1.949-2.411-3.405l-1.883-1.707,4.737-5.227,16.78,15.211-11.885,44.828,19.348-21.342c1.579-1.742,2.367-3.021,2.366-3.834-.002-.814-.815-1.958-2.439-3.43l-2.548-2.309,4.738-5.227,17.749,16.09-4.738,5.227-1.688-1.531c-1.606-1.456-2.815-2.145-3.625-2.067-.811.078-2.005.988-3.585,2.73l-30.431,33.569-9.802-8.886,13.067-49.083-21.998,24.267Z" fill="#231f20"/><path d="M517.756,146.346l-18.725,12.184-3.466-5.325c2.487-1.618,4.438-3.215,5.852-4.789,1.414-1.574,2.327-3.045,2.74-4.414.802-2.514-.312-6.1-3.342-10.756l-5.504-8.458-14.185,9.229,1.55,2.381c1.508,2.318,2.98,3.529,4.419,3.635.76.04,1.754-.191,2.981-.692,1.227-.501,2.673-1.293,4.34-2.378l3.424,5.263-23.054,15.001-3.425-5.262,2.218-1.443c2.558-1.664,4.054-3.24,4.489-4.727.436-1.487-.047-3.307-1.446-5.457l-1.55-2.381-16.296,10.604,5.055,7.769c3.112,4.782,6.121,7.327,9.027,7.636,1.6.148,3.446-.118,5.543-.797,2.455-.795,5.044-2.078,7.766-3.85l3.465,5.326-20.237,13.168-27.64-42.477,5.913-3.848,1.59,2.443c1.168,1.796,2.157,2.765,2.968,2.906s2.201-.429,4.172-1.711l27.595-17.956c1.971-1.283,3.059-2.318,3.265-3.105.205-.788-.283-2.09-1.465-3.907l-1.59-2.443,5.913-3.848,27.64,42.477Z" fill="#231f20"/><path d="M473.527,189.127l-2.036-5.702,21.79-7.781,2.237,6.265c-4.469,2.39-7.566,5.493-9.294,9.312-1.729,3.817-1.842,7.827-.342,12.028.997,2.791,2.39,4.801,4.181,6.025,1.79,1.227,3.727,1.467,5.81.725,3.48-1.244,4.866-6.104,4.157-14.582l-.135-1.499c-.653-8.074-.198-13.832,1.367-17.274,1.564-3.443,4.548-5.95,8.951-7.522,5.221-1.864,10.054-1.646,14.503.655,4.448,2.301,7.678,6.267,9.688,11.898.997,2.792,1.491,5.466,1.482,8.022s-.521,5.285-1.535,8.188l4.413.369,1.91,5.35-20.248,7.23-2.187-6.123c4.42-2.109,7.428-4.902,9.023-8.383,1.596-3.48,1.64-7.332.132-11.555-.889-2.487-2.188-4.272-3.896-5.355-1.71-1.083-3.527-1.28-5.451-.593-3.428,1.224-4.805,5.816-4.132,13.777l.32,3.894c.499,7.309-.058,12.68-1.67,16.113s-4.581,5.922-8.904,7.467c-5.511,1.967-10.557,1.738-15.138-.688-4.583-2.424-7.967-6.699-10.153-12.822-1.072-3.004-1.599-5.893-1.578-8.664s.579-5.663,1.674-8.673l-4.94-.101Z" fill="#231f20"/><path d="M386.151,207.335c2.588-4.396,3.128-8.711,1.47-12.496-3.112-7.111-13.476-11.027-29.18-11.027-4.68,0-8.471-.019-11.635-.055-3.169-.036-7.409-2.164-10.453-2.774-6.892-1.383-12.311-1.681-19.271-.878-3.215.371-7.011,1.447-10.259.879-17.147-2.999-43.611-10.186-76.628-20.864-37.77-12.215-158.678-46.421-194.836-56.613-5.745-1.621-11.978-1.331-17.551.813L0,111.167l246.72,87.512-100.12,21.458c-1.586-5.611-4.208-15.647-4.907-21.475,0,0,25.293.926,40.213,1.976l6.624-9.912-63.345-10.11-54.765-.96-7.156,10.22,43.2,5.107-3.224,47.407,2.853-.251c.385-.033,38.952-3.445,77.573-9.016,41.046-5.921,68.464-8.269,104.406-4.675,19.997,1.999,43.991,2.006,63.51-1.986l181.455,32.803,1.262.228,10.005-10.005-158.152-42.154ZM341.858,187.228c-1.987,2.51-4.664,6.585-7.341,8.329-4.179,2.722-9.266,1.389-13.199-1.109-2.03-1.289-3.87-2.9-5.44-4.72-.588-.682-3.526-4.336-3.526-4.336.002,0,8.001-1.882,14.4-1.506,9.6.471,15.106,3.341,15.105,3.342ZM288.561,223.575c-36.446-3.647-64.154-1.277-105.594,4.7-32.434,4.678-64.835,7.828-74.449,8.724l3.151-46.333-39.69-4.692,1.092-1.56,50.717,1s50.504,7.034,58.054,8.737l-1.217,1.984-46.718-3.119.941,3.765,8.324,29.103,121.491-26.038L14.133,110.981l5.434-2.09c4.593-1.767,9.729-2.004,14.463-.67,36.136,10.187,156.97,44.372,194.657,56.56,32.883,10.634,58.746,17.699,76.133,20.831,3.037,1.204,5.169,3.674,7.417,6.296,3.641,4.244,7.767,9.055,16.329,9.055,8.006,0,11.346-4.567,13.784-7.902,2.107-2.882,3.336-4.386,6.094-4.386h0c2.824.025,6.102.039,9.997.039,13.44,0,22.44,2.949,24.691,8.092,1.428,3.262-.057,7.518-4.186,11.991-13.802,15.073-55.344,18.282-90.387,14.779ZM532.646,254.217l-169.805-30.698c8.292-2.724,15.174-6.451,19.713-11.407.165-.179.316-.359.475-.538l151.8,40.461-2.183,2.183Z" fill="#231f20"/></svg>